PathFileType	4	(X/Y/Z)	C:\Users\Admin\Desktop\Capture Files\05302019 Reflex Trials\AcheillesTrialStatic_1-Unnamed.trc
DataRate	CameraRate	NumFrames	NumMarkers	Units	OrigDataRate	OrigDataStartFrame	OrigNumFrames
300.00	300.00	      15	0	mm	300.00	424	      1130
Frame#	Time	
		

424	1.410	111.87698	242.72729	383.19199	149.28827	203.72815	236.04942	89.83699	133.51535	368.22427	99.51839	156.04987	304.11938	200.57536	-309.32706	927.89282	145.53450	355.56046	155.22391	-231.44049	209.95248	318.58765	-214.50410	-217.56158	665.84357	289.09366	-318.16245	1019.30682	72.91331	245.38510	246.35101	281.10876	-141.74646	964.36530				124.82253	309.66052	207.76076							91.66363	245.33643	565.41266	113.58991	254.35495	320.55307	
425	1.413	111.88593	242.72949	383.18927	149.27342	203.70116	236.04996	89.85493	133.52388	368.25671	99.08602	156.59389	304.04898	200.56754	-309.29440	927.90533	145.53293	355.55954	155.22375	-231.44807	209.94397	318.59454	-214.49297	-217.58054	665.84296	289.11969	-318.22372	1019.30042	72.90199	245.37396	246.34727	281.10074	-141.75322	964.36816				124.81494	309.66571	207.74483							91.66692	245.32857	565.42810	113.60627	254.34181	320.55542	
426	1.417	111.86866	242.71544	383.19336	149.27242	203.70653	236.06290	89.83303	133.49565	368.24762				200.58018	-309.32727	927.87701	145.52913	355.55371	155.21913	-231.44621	209.93954	318.59406	-214.47975	-217.56657	665.85052	289.08893	-318.18628	1019.31030	72.91352	245.36160	246.34425	281.11880	-141.74596	964.37482	99.55313	156.03850	304.14160	124.81007	309.65918	207.76506							91.66444	245.32794	565.42432	113.58949	254.34023	320.56091	
427	1.420	111.86207	242.71622	383.19437	149.30734	203.71336	236.05423	89.80972	133.50439	368.23941				200.57170	-309.29218	927.89819	145.51973	355.54880	155.21275	-231.45444	209.95085	318.60757	-214.47751	-217.54459	665.82928	289.10562	-318.21432	1019.30634	72.88638	245.36192	246.34674	281.10910	-141.74440	964.36798	99.49298	156.01372	304.12372	124.79800	309.65576	207.76045							91.67307	245.32643	565.42566	113.59468	254.34331	320.55463	
428	1.423	111.87955	242.71774	383.20251	149.28297	203.70970	236.05103	89.79788	133.49561	368.25421				200.57330	-309.32413	927.88849	145.50488	355.54941	155.21527	-231.44745	209.94229	318.60138	-214.50685	-217.58705	665.83826	289.13376	-318.22141	1019.30823	72.88301	245.39359	246.36305	281.11087	-141.73929	964.34174	99.54932	156.03366	304.14188	124.79768	309.65778	207.76723							91.66621	245.31085	565.41980	113.57909	254.33434	320.56363	
429	1.427	111.87462	242.70641	383.19308	149.28252	203.70839	236.04810	89.81243	133.51018	368.24121				200.59689	-309.31033	927.90765	145.49596	355.54080	155.21121	-231.45329	209.94035	318.61502	-214.47992	-217.57124	665.85760	289.12912	-318.18137	1019.30963	72.86284	245.39209	246.36421	281.12030	-141.75604	964.36047	99.05381	156.59061	304.08813	124.78263	309.65567	207.75945							91.66467	245.31409	565.42474	113.57306	254.34863	320.55673	
430	1.430	111.85822	242.72176	383.19980	149.26698	203.70885	236.06396	89.80600	133.49969	368.27173	99.54112	156.02867	304.14822	200.58990	-309.33499	927.92059	145.49762	355.54712	155.20663	-231.43893	209.94351	318.61163	-214.50537	-217.59050	665.83362	289.12912	-318.22586	1019.29553	72.87524	245.38196	246.36395	281.14160	-141.76004	964.37158				124.77899	309.65335	207.74341							91.65937	245.32018	565.42206	113.56908	254.34062	320.56494	
431	1.433	111.87549	242.72078	383.19904	149.26418	203.71536	236.04678	89.82588	133.49159	368.26614	99.52006	156.03297	304.15552	200.61665	-309.38565	927.87933	145.48344	355.53268	155.21945	-231.44981	209.94067	318.60648	-214.49376	-217.55937	665.83203	289.13708	-318.27081	1019.28204	72.86232	245.37492	246.36882	281.12177	-141.76451	964.38129				124.77761	309.63635	207.75273							91.66160	245.32982	565.43671	113.54606	254.34621	320.55338	
432	1.437	111.85632	242.71347	383.20178	149.25380	203.70393	236.05403	89.80621	133.49078	368.24573	99.06458	156.55710	304.10892	200.62631	-309.38101	927.88501	145.47575	355.54108	155.20294	-231.44777	209.94415	318.61298	-214.49271	-217.58582	665.82446	289.17203	-318.27954	1019.27655	72.86249	245.37393	246.35831	281.14160	-141.76215	964.37964				124.76559	309.65768	207.75635							91.68011	245.32257	565.43140	113.56644	254.35027	320.56299	
433	1.440	111.85461	242.72658	383.19498	149.25195	203.69543	236.06276	89.81425	133.50537	368.27597				200.63034	-309.36157	927.88702	145.47304	355.54092	155.20267	-231.45116	209.94630	318.62073	-214.50623	-217.58746	665.85162	289.17740	-318.31073	1019.24573	72.86152	245.36308	246.35405	281.15048	-141.74936	964.38062	99.50352	156.02565	304.15677	124.76994	309.65237	207.75063							91.65807	245.33601	565.42816	113.56146	254.34772	320.55862	
434	1.443	111.84119	242.73007	383.20297	149.22592	203.71559	236.05652	89.78394	133.49638	368.25562				200.62424	-309.40427	927.88635	145.44603	355.53278	155.20506	-231.44862	209.92549	318.62402	-214.51379	-217.57500	665.84430	289.16660	-318.23581	1019.30023	72.85085	245.36537	246.36240	281.17780	-141.74646	964.39410	99.51989	156.01883	304.17532	124.75724	309.66367	207.75339							91.66810	245.31697	565.43060	113.53996	254.36324	320.55762	
435	1.447	111.84360	242.70766	383.19159	149.21036	203.70213	236.07324	89.80608	133.49709	368.26035				200.63435	-309.40146	927.88867	145.44559	355.51492	155.19269	-231.44778	209.91232	318.60999	-214.48950	-217.55409	665.80750	289.17136	-318.23773	1019.26917	72.85949	245.35986	246.36166	281.17142	-141.76273	964.41309	99.49260	156.01477	304.15802	124.76186	309.63141	207.75368							91.65863	245.31636	565.42297	113.54790	254.33374	320.55389	
436	1.450	111.84174	242.71785	383.19876	149.23344	203.69611	236.07365	89.82835	133.50191	368.27887				200.59903	-309.31393	927.89197	145.44398	355.52802	155.19339	-231.45186	209.91771	318.60504	-214.49773	-217.57532	665.84882	289.20016	-318.33279	1019.26440	72.84157	245.36171	246.36400	281.16098	-141.76260	964.42096	99.02615	156.54694	304.08673	124.74994	309.63031	207.74767							91.65842	245.31822	565.42786	113.55653	254.33411	320.55902	
437	1.453	111.85342	242.70367	383.19568	149.22632	203.69655	236.07359	89.77076	133.48824	368.27722				200.63657	-309.37631	927.89154	145.44746	355.52338	155.17999	-231.44347	209.88974	318.60645	-214.45000	-217.55638	665.84235	289.22357	-318.35895	1019.24481	72.84584	245.34805	246.34245	281.16815	-141.75888	964.40167	99.06276	156.56844	304.10220	124.73842	309.62988	207.73792							91.67307	245.31815	565.42444	113.55379	254.32950	320.56485	
438	1.457	111.85094	242.69643	383.19189	149.22464	203.70175	236.04590	89.76984	133.47264	368.25076	99.47759	155.99196	304.15970	200.61966	-309.37756	927.88678	145.45209	355.51389	155.16853	-231.44301	209.90836	318.60397	-214.50748	-217.57333	665.84265	289.19275	-318.27695	1019.26251	72.82207	245.36629	246.35989	281.16415	-141.76144	964.39447				124.73282	309.61749	207.72955							91.66415	245.32530	565.43298	113.54619	254.31718	320.54376	
